<svg width="63" height="57" viewBox="0 0 63 57" fill="none" xmlns="http://www.w3.org/2000/svg">
<path d="M53.5539 19.8464C53.5539 20.7374 53.5539 21.5393 53.5539 22.3412C53.5539 23.143 53.5539 23.7667 52.4864 23.5885C52.4864 30.2708 52.4864 36.7749 52.4864 43.4572C53.376 43.4572 53.6428 43.9918 53.5539 44.7937C53.4649 45.5955 53.5539 46.3974 53.5539 47.2884C55.0662 47.2884 56.4006 47.3775 57.824 47.2884C58.7136 47.2884 59.0694 47.5557 58.9805 48.4467C58.8915 49.3376 58.9805 50.3177 58.9805 51.3869C60.048 51.3869 61.0265 51.476 62.0051 51.3869C62.8057 51.2978 63.0726 51.6542 62.9837 52.456C62.8947 53.6143 62.9837 54.7726 62.9837 56.0199C62.9837 56.7327 62.7168 57 62.0941 57C61.9161 57 61.6493 57 61.4713 57C41.5443 57 21.5283 57 1.60127 57C-1.0817e-05 57 0 57 0 55.3963C0 54.3271 0 53.347 0 52.2779C0 51.6542 0.266874 51.476 0.800634 51.476C1.42335 51.476 2.13503 51.476 2.93567 51.476C2.93567 50.4068 3.02463 49.5158 2.93567 48.5358C2.84671 47.6448 3.20256 47.3775 4.09216 47.3775C5.3376 47.4666 6.672 47.3775 8.0064 47.3775C8.0064 46.4865 8.0064 45.5955 8.0064 44.7937C7.91744 43.9918 8.09535 43.4572 9.16287 43.5463C9.16287 36.9531 9.16287 30.3599 9.16287 23.7667C8.00639 23.7667 8.0064 23.0539 8.0064 22.163C8.09536 21.4502 8.0064 20.7374 8.0064 20.0246C6.13824 20.0246 4.35903 20.0246 2.57983 20.0246C2.22399 20.0246 1.7792 19.8464 1.42336 19.6682C1.69024 19.3118 1.86816 18.8664 2.224 18.6882C11.4758 12.5405 20.7277 6.48183 29.9795 0.334115C30.6912 -0.111372 31.2249 -0.111372 31.9366 0.334115C41.1885 6.48183 50.4403 12.5405 59.6921 18.6882C60.048 18.9555 60.2259 19.3118 60.4928 19.6682C60.048 19.7573 59.6921 20.0246 59.2473 20.0246C57.3792 19.8464 55.511 19.8464 53.5539 19.8464ZM8.36223 18.5991C8.36223 18.6882 8.36224 18.6882 8.4512 18.7773C23.4854 18.7773 38.5197 18.7773 53.7318 18.7773C53.4649 18.5991 53.376 18.51 53.287 18.4209C46.0813 13.8769 38.7865 9.33294 31.4918 4.78898C31.2249 4.61079 30.6022 4.69989 30.3354 4.87808C27.5776 6.57093 24.8198 8.35287 22.0621 10.0457C17.4361 12.8968 12.8992 15.7479 8.36223 18.5991ZM62.0051 52.1888C41.6333 52.1888 21.3504 52.1888 0.978565 52.1888C0.978565 53.4361 0.978565 54.5944 0.978565 55.7526C21.3504 55.7526 41.6333 55.7526 62.0051 55.7526C62.0051 54.5944 62.0051 53.4361 62.0051 52.1888ZM57.9129 48.1794C39.8541 48.1794 21.8841 48.1794 3.91423 48.1794C3.91423 49.2485 3.91423 50.2286 3.91423 51.2087C21.9731 51.2087 39.8541 51.2087 57.9129 51.2087C57.9129 50.1395 57.9129 49.1594 57.9129 48.1794ZM33.7158 43.3681C35.7619 43.3681 37.6301 43.3681 39.5872 43.3681C39.5872 36.6858 39.5872 30.1817 39.5872 23.5885C37.6301 23.5885 35.6729 23.5885 33.7158 23.5885C33.7158 30.1817 33.7158 36.7749 33.7158 43.3681ZM10.1414 23.5885C10.1414 30.1817 10.1414 36.7749 10.1414 43.3681C12.0986 43.3681 14.0557 43.3681 16.0128 43.3681C16.0128 36.6858 16.0128 30.1817 16.0128 23.5885C14.0557 23.5885 12.0986 23.5885 10.1414 23.5885ZM27.8445 43.3681C27.8445 36.6858 27.8445 30.1817 27.8445 23.5885C25.8873 23.5885 23.9302 23.5885 21.9731 23.5885C21.9731 30.2708 21.9731 36.864 21.9731 43.3681C23.9302 43.3681 25.8873 43.3681 27.8445 43.3681ZM51.3299 43.3681C51.3299 36.6858 51.3299 30.0926 51.3299 23.5885C49.3728 23.5885 47.5046 23.5885 45.5475 23.5885C45.5475 30.1817 45.5475 36.7749 45.5475 43.3681C47.5046 43.3681 49.3728 43.3681 51.3299 43.3681ZM3.46943 18.7773C5.07071 18.9555 6.31615 18.8663 7.47263 18.0645C14.8563 13.3423 22.4179 8.62016 29.8016 3.89801C30.6022 3.45252 31.136 3.36342 31.9366 3.89801C39.4982 8.70926 47.0598 13.4314 54.5325 18.2427C55.6889 18.9555 56.8454 18.9555 58.2688 18.7773C57.9129 18.51 57.824 18.4209 57.6461 18.2427C48.928 12.5405 40.2099 6.74914 31.5808 1.04691C30.9581 0.69052 30.6022 0.868693 30.1574 1.13599C24.6419 4.78897 19.1264 8.44198 13.6109 12.095C10.3193 14.2333 7.02783 16.4607 3.46943 18.7773ZM32.7373 43.3681C32.7373 36.6858 32.7373 30.1817 32.7373 23.4994C31.5808 23.7667 31.6698 22.9648 31.6698 22.2521C31.6698 21.4502 31.6698 20.6483 31.6698 19.8464C30.9581 19.8464 30.5133 19.8464 29.9795 19.8464C29.9795 20.6483 29.8905 21.3611 29.9795 22.0739C30.0685 22.9648 29.8905 23.6776 28.823 23.5885C28.823 30.1817 28.823 36.7749 28.823 43.3681C29.8016 43.3681 30.0685 43.8136 29.9795 44.7046C29.8905 45.5065 29.9795 46.3083 29.9795 47.1102C30.6022 47.1102 31.136 47.1102 31.6698 47.1102C31.6698 46.2192 31.6698 45.4174 31.6698 44.6155C31.5808 43.9027 31.7587 43.3681 32.7373 43.3681ZM20.9056 43.1899C20.9056 36.6858 20.9056 30.1817 20.9056 23.5885C19.927 23.6776 19.7491 23.0539 19.8381 22.3412C19.927 21.5393 19.8381 20.7374 19.8381 19.9355C19.2153 19.9355 18.6816 19.9355 18.1478 19.9355C18.1478 20.6483 18.1478 21.3611 18.1478 21.9848C18.1478 22.7866 18.2368 23.6776 17.0803 23.6776C17.0803 30.2708 17.0803 36.7749 17.0803 43.3681C18.1478 43.3681 18.2368 44.0809 18.1478 44.8828C18.1478 45.6846 18.1478 46.3974 18.1478 47.1993C18.8595 47.1993 19.3043 47.1993 19.6602 47.1993C20.3718 45.8628 18.8595 44.0809 20.9056 43.1899ZM43.4125 19.8464C42.7897 19.8464 42.3449 19.8464 41.7222 19.8464C41.7222 20.5592 41.7222 21.272 41.7222 21.9848C41.8112 22.8757 41.7222 23.6776 40.5658 23.5885C40.5658 30.1817 40.5658 36.7749 40.5658 43.3681C41.6333 43.279 41.7222 43.9027 41.7222 44.7046C41.6333 45.5065 41.7222 46.3083 41.7222 47.1102C42.3449 47.1102 42.7897 47.1102 43.4125 47.1102C43.4125 46.3083 43.4125 45.6846 43.4125 44.9719C43.4125 44.0809 43.3235 43.279 44.48 43.3681C44.48 36.7749 44.48 30.1817 44.48 23.5885C43.4125 23.7667 43.3235 23.143 43.4125 22.3412C43.4125 21.5393 43.4125 20.7374 43.4125 19.8464ZM44.3021 22.5193C47.1488 22.5193 49.8176 22.5193 52.5754 22.5193C52.5754 21.6284 52.5754 20.7374 52.5754 19.9355C49.8176 19.9355 47.0598 19.9355 44.3021 19.9355C44.3021 20.8265 44.3021 21.6284 44.3021 22.5193ZM28.912 44.4373C26.0653 44.4373 23.3965 44.4373 20.8166 44.4373C20.7277 44.5264 20.7277 44.6155 20.7277 44.6155C20.4608 47.1102 20.4608 47.1102 22.9517 47.1102C24.9088 47.1102 26.8659 47.1102 28.912 47.1102C28.912 46.2192 28.912 45.3283 28.912 44.4373ZM17.1693 44.4373C14.4115 44.4373 11.7427 44.4373 8.98496 44.4373C8.98496 45.1501 8.98496 45.8629 8.98496 46.4865C8.98496 46.7538 9.34078 47.1102 9.5187 47.1102C12.0985 47.1102 14.5894 47.1102 17.1693 47.1102C17.1693 46.2192 17.1693 45.4173 17.1693 44.4373ZM40.7437 19.9355C37.9859 19.9355 35.2282 19.9355 32.5594 19.9355C32.5594 20.8265 32.5594 21.7175 32.5594 22.5193C35.3171 22.5193 37.9859 22.5193 40.7437 22.5193C40.7437 21.6284 40.7437 20.7374 40.7437 19.9355ZM8.98496 22.5193C11.7427 22.5193 14.4115 22.5193 17.0803 22.5193C17.0803 21.5393 17.0803 20.7374 17.0803 19.8464C14.3225 19.8464 11.6538 19.8464 8.98496 19.8464C8.98496 20.7374 8.98496 21.6284 8.98496 22.5193ZM44.3021 47.1993C46.9709 47.1993 49.5507 47.1993 52.1306 47.1993C52.3085 47.1993 52.4864 46.932 52.5754 46.7538C52.6643 46.041 52.5754 45.3283 52.5754 44.6155C49.7286 44.6155 46.9709 44.6155 44.3021 44.6155C44.3021 45.3283 44.3021 46.1301 44.3021 47.1993ZM40.6547 44.4373C37.9859 44.4373 35.3171 44.4373 32.5594 44.4373C32.5594 45.3283 32.5594 46.1301 32.5594 47.1993C34.6054 47.1993 36.5625 47.1993 38.5197 47.1993C41.0105 47.1993 41.0105 47.1993 40.7437 44.7046C40.7437 44.6155 40.7437 44.6155 40.6547 44.4373ZM28.912 19.9355C26.1542 19.9355 23.4854 19.9355 20.8166 19.9355C20.8166 20.8265 20.8166 21.7175 20.8166 22.6084C23.5744 22.6084 26.2432 22.6084 28.912 22.6084C28.912 21.6284 28.912 20.8265 28.912 19.9355Z" fill="#F8D8B1"/>
</svg>
