<svg width="53" height="57" viewBox="0 0 53 57" fill="none" xmlns="http://www.w3.org/2000/svg">
<path d="M42.8195 7.93876C41.3542 8.40088 39.8888 9.17106 38.4234 9.3251C35.9554 9.55616 33.4874 9.40212 31.0195 9.40212C30.4025 9.40212 30.094 9.55616 29.7855 10.0953C29.3227 10.9425 29.1685 11.5587 29.477 12.5599C29.7083 13.1761 29.477 13.9462 29.3227 14.6394C29.2456 15.3326 28.86 16.0258 28.86 16.719C28.86 24.1128 28.86 31.4296 28.86 38.8235C28.86 39.3626 29.0913 39.9788 29.3998 40.3639C30.3253 41.7502 30.5567 43.2136 29.7083 44.6769C29.3227 45.2931 29.477 45.6782 29.8626 46.1403C31.5593 48.3739 33.7188 49.9913 36.1097 51.4546C36.7267 51.8397 37.0352 52.2248 36.958 52.995C36.8809 54.0733 36.8809 55.0745 36.958 56.1528C36.958 56.769 36.8038 57 36.1868 57C29.5541 57 22.8442 57 16.2115 57C15.6716 57 15.4403 56.846 15.4403 56.2298C15.4403 55.1515 15.5174 53.9963 15.4403 52.918C15.4403 52.3018 15.6716 51.9167 16.2115 51.6087C17.9854 50.2993 19.7592 48.913 21.456 47.5266C21.8416 47.2186 22.1501 46.6794 22.5357 46.2943C22.9985 45.7552 23.1527 45.2161 22.7671 44.4459C22.073 43.1365 22.3044 41.7502 23.1527 40.5179C23.3841 40.1328 23.6155 39.5937 23.6155 39.1315C23.6155 31.4296 23.6155 23.8047 23.6155 16.1028C23.6155 15.6407 23.3841 15.1786 23.307 14.7164C23.1527 13.9463 23.0756 13.2531 22.9214 12.4059C22.1501 13.099 21.3789 13.7152 20.5305 14.4084C18.2168 16.4109 15.7488 17.8742 12.5866 18.0283C11.584 18.1053 10.6585 17.9513 9.57878 17.8742C9.81015 18.7985 10.1187 19.7227 10.4272 20.724C12.3553 27.1166 14.2834 33.5862 16.2115 39.9788C16.2886 40.2868 16.6742 40.5949 16.9056 40.903C17.0599 41.134 17.2141 41.3651 17.137 41.5962C17.0599 42.8285 16.4429 43.7527 15.5945 44.5229C13.5122 46.3714 10.967 46.9105 8.26766 46.8335C6.26242 46.8335 4.3343 46.3714 2.63755 45.2931C1.32643 44.4459 0.246694 43.3676 0.0153195 41.8272C-0.0618052 41.5191 0.169564 41.134 0.323814 40.826C0.400938 40.5949 0.555195 40.3638 0.632319 40.0558C2.94606 32.4309 5.18267 24.729 7.49641 17.104C7.57354 16.796 7.57354 16.4109 7.41929 16.1028C6.72517 14.8705 6.64805 13.7152 7.41929 12.5599C8.19054 11.4816 9.27028 11.0195 10.5814 11.2506C11.9696 11.4816 12.818 12.4059 13.1265 13.7152C13.1265 13.7922 13.2036 13.9463 13.2036 14.1003C14.8233 13.5612 16.0573 12.4829 17.137 11.2506C17.754 10.4804 18.2939 9.63319 18.9109 8.78598C19.8364 7.39963 20.839 6.16732 22.7671 6.39838C22.9214 6.39838 23.2298 6.24434 23.3841 6.01328C24.3867 4.93501 25.6207 4.5499 27.009 4.62692C27.3946 4.62692 27.8573 4.47288 28.243 4.24182C29.2456 3.54865 30.3253 3.54865 31.4051 3.85673C32.8704 4.24182 34.3358 4.85798 35.8783 5.08904C37.2665 5.3201 38.6548 5.16606 40.1973 5.16606C40.043 4.62693 39.8888 4.31885 39.8117 4.01078C39.426 2.77847 39.8888 1.46915 40.8143 0.698958C41.894 -0.148254 43.3594 -0.225287 44.4391 0.467886C45.5189 1.16106 46.213 2.47039 45.7503 3.62568C45.2104 5.08905 45.596 6.39836 45.9816 7.70769C48.064 14.5624 50.0693 21.4171 52.0745 28.1948C52.1516 28.5029 52.5372 28.7339 52.6915 29.042C52.8457 29.2731 53 29.5041 53 29.8122C52.9229 31.2756 52.0745 32.2768 50.9948 33.124C48.7581 34.8185 46.213 35.2036 43.4365 35.0495C41.3541 34.8955 39.3489 34.3564 37.7293 32.97C36.7267 32.1998 36.0326 31.2756 35.8783 29.9663C35.8012 29.5812 35.6469 29.042 36.3411 28.965C36.4953 28.965 36.6496 28.6569 36.7267 28.4259C38.7319 21.6482 40.7372 14.8705 42.8195 8.09279C42.8967 7.93875 42.8195 7.86174 42.8195 7.93876ZM23.8468 45.9092C23.1527 46.7564 22.6128 47.6037 21.8416 48.2968C20.222 49.6062 18.5252 50.8385 16.9056 52.1478C16.6742 52.3018 16.2886 52.5329 16.2886 52.7639C16.2115 53.9192 16.2886 54.9975 16.2886 56.1528C22.9985 56.1528 29.6312 56.1528 36.2639 56.1528C36.2639 55.0745 36.2639 53.9963 36.2639 52.995C36.2639 52.764 35.9554 52.4559 35.724 52.3018C33.1018 50.6074 30.5567 48.836 28.86 46.0633C27.0861 46.9875 25.4665 46.9875 23.8468 45.9092ZM28.0116 39.0545C28.0116 31.4296 28.0116 23.8047 28.0116 15.9488C26.7776 16.873 25.5436 16.6419 24.3867 15.8717C24.3867 23.7277 24.3867 31.5066 24.3867 39.0545C25.6207 39.0545 26.7776 39.0545 28.0116 39.0545ZM15.5945 40.5949C13.3579 33.124 11.1984 25.8072 9.03891 18.4904C8.96178 18.4904 8.96178 18.4904 8.88466 18.5674C8.88466 25.8842 8.88466 33.2011 8.88466 40.5949C11.1213 40.5949 13.2808 40.5949 15.5945 40.5949ZM8.03628 40.6719C8.03628 33.2781 8.03628 25.9613 8.03628 18.7215C7.95916 18.7215 7.95916 18.7215 7.88204 18.7215C5.72254 26.0383 3.56305 33.3551 1.32644 40.749C3.64018 40.6719 5.79967 40.6719 8.03628 40.6719ZM44.0535 7.32259C43.9764 7.32259 43.9764 7.32261 43.8993 7.24559C41.7398 14.4084 39.6574 21.6482 37.4979 28.811C39.7345 28.811 41.894 28.811 44.0535 28.811C44.0535 21.6482 44.0535 14.4854 44.0535 7.32259ZM51.4575 28.888C49.298 21.6482 47.1385 14.4854 45.0561 7.32259C44.979 7.32259 44.979 7.3226 44.9019 7.39962C44.9019 14.5624 44.9019 21.7252 44.9019 28.888C47.1385 28.888 49.2209 28.888 51.4575 28.888ZM30.2482 8.78598C32.562 8.78598 34.7986 8.863 37.0352 8.78598C39.0404 8.70896 40.8914 8.01577 42.5882 6.9375C43.8222 6.09029 44.8248 5.01204 44.979 3.39463C45.1333 2.31636 44.5934 1.39212 43.6679 0.930006C42.7424 0.54491 41.6627 0.775977 40.9685 1.46915C40.2744 2.23934 40.1973 3.31759 40.7371 4.24182C40.8914 4.5499 41.1228 4.78097 41.3542 5.16606C40.8143 5.39712 40.5058 5.55117 40.1202 5.70521C37.9607 6.32136 35.8783 6.01327 33.7959 5.39711C32.8704 5.08904 31.945 4.78097 31.0195 4.4729C30.1711 4.24184 29.3227 4.31885 28.5515 5.08904C29.6312 5.85923 30.1711 7.09155 30.2482 8.78598ZM22.5357 7.09155C22.4586 7.01453 22.3815 6.86049 22.3044 6.78347C21.6874 7.16857 20.9932 7.39962 20.5305 7.86174C19.9135 8.47789 19.5279 9.24809 18.988 9.94127C17.5998 12.0208 15.9801 13.7922 13.5121 14.7164C12.5095 15.1015 12.4324 15.0245 12.3553 13.9463C12.2781 12.868 11.5069 12.0208 10.4272 11.8667C9.42453 11.6357 8.34478 12.1748 7.88204 13.1761C7.41929 14.1003 7.57354 15.3326 8.49904 15.9488C9.34741 16.4879 10.35 17.027 11.2755 17.1811C13.5121 17.4891 15.6716 16.873 17.5226 15.6407C19.5279 14.2543 21.3789 12.7139 23.307 11.1736C22.3815 9.78721 22.1501 8.47789 22.5357 7.09155ZM36.7267 29.6582C36.9581 31.0445 37.8064 31.8917 38.809 32.5849C40.5058 33.6632 42.4339 34.1253 44.4391 34.1253C46.83 34.1253 49.0666 33.6632 50.9176 32.0458C51.6889 31.4296 52.2287 30.6594 52.3059 29.6582C47.0614 29.6582 41.894 29.6582 36.7267 29.6582ZM0.863696 41.5192C1.01795 42.5974 1.63494 43.2906 2.32906 43.9838C5.49117 46.6794 11.9696 46.6794 15.0546 43.8297C15.6716 43.2906 16.0573 42.4434 16.7514 41.5192C11.1984 41.5192 6.10818 41.5192 0.863696 41.5192ZM26.392 39.6707C24.6952 39.6707 23.2299 41.057 23.1527 42.8285C23.1527 44.5229 24.6181 45.9863 26.3148 45.9863C28.0116 45.9863 29.3998 44.5999 29.477 42.9055C29.5541 41.134 28.0887 39.6707 26.392 39.6707ZM29.3998 8.40088C29.3998 6.62944 28.0116 5.24309 26.2377 5.24309C24.541 5.24309 23.1527 6.62943 23.0756 8.32386C23.0756 10.0953 24.4638 11.4816 26.1606 11.5587C28.0116 11.5587 29.3998 10.1723 29.3998 8.40088ZM28.3972 11.7897C27.009 12.5599 25.6978 12.4829 24.3096 11.8667C23.5384 13.1761 23.6926 14.2543 24.6952 15.0245C25.775 15.9487 26.8547 15.9488 28.0116 15.1015C28.9371 14.2543 29.0913 13.2531 28.3972 11.7897Z" fill="#361C20"/>
</svg>
