<svg width="64" height="57" viewBox="0 0 64 57" fill="none" xmlns="http://www.w3.org/2000/svg">
<path d="M27.1596 48.4766C27.1596 47.5794 27.2686 46.9065 27.1596 46.3458C27.0507 45.2243 27.4864 45 28.467 45C38.8173 45 49.1677 45 59.409 45C60.4986 45 60.9343 45.2243 60.8254 46.4579C60.7164 47.0187 60.8254 47.6916 60.8254 48.3645C61.2612 48.3645 61.5881 48.4766 61.9149 48.4766C64.3118 48.4766 63.985 48.4766 63.985 50.7196C63.985 52.1776 63.985 53.6355 63.985 55.2056C63.985 57 63.985 57 62.3507 57C56.3584 57 50.3661 57 44.4828 57C38.1636 57 31.8445 57 25.5253 57C24.4358 57 24 56.7757 24 55.5421C24.109 53.6355 24.109 51.729 24 49.9346C24 48.8131 24.3269 48.4766 25.3074 48.5888C25.9611 48.4766 26.5059 48.4766 27.1596 48.4766ZM62.8955 49.7103C50.2572 49.7103 37.7278 49.7103 25.0895 49.7103C25.0895 51.729 25.0895 53.7477 25.0895 55.7663C37.7278 55.7663 50.2572 55.7663 62.8955 55.7663C62.8955 53.6355 62.8955 51.729 62.8955 49.7103ZM59.7359 46.1215C49.1676 46.1215 38.7084 46.1215 28.2491 46.1215C28.2491 46.9065 28.2491 47.4673 28.2491 48.1402C38.8174 48.1402 49.2766 48.1402 59.7359 48.1402C59.7359 47.4673 59.7359 46.9065 59.7359 46.1215Z" fill="#361C20"/>
<path d="M55.7593 24.0108C56.4975 23.9054 57.1303 23.5895 57.8686 23.5895C59.2396 23.5895 60.3997 24.4321 60.8216 25.8013C61.2434 27.1705 60.9271 28.4344 59.7669 29.3823C56.0756 32.4368 52.2789 35.4912 48.4821 38.5456C47.4275 39.3882 46.3728 40.3361 45.2127 41.1787C43.7362 42.3373 42.1542 42.4426 40.7832 41.3894C39.5176 40.3361 39.3066 38.6509 40.2558 36.9657C40.3613 36.8604 40.3613 36.7551 40.4668 36.5444C38.5684 34.2273 36.67 31.9101 34.6662 29.4877C34.0334 30.0143 33.5061 30.4356 32.8733 30.9622C24.1196 38.5456 15.366 46.129 6.71785 53.8177C4.08122 56.2402 0.60081 54.6603 0.0734835 51.6059C-0.242913 50.026 0.495345 48.9728 1.65546 48.0248C5.45222 45.0758 9.35446 42.1267 13.1512 39.1776C18.8463 34.8592 24.5415 30.5409 30.2366 26.1173C30.553 25.9066 30.7639 25.5906 31.1858 25.2747C29.2874 22.9575 27.4945 20.7457 25.5961 18.4285C25.4907 18.2179 24.9633 18.3232 24.7524 18.3232C22.854 18.7445 21.3775 18.2179 20.6392 16.7433C19.901 15.2688 20.3229 13.7942 21.7994 12.5303C26.4399 8.73864 31.0804 4.94694 35.7208 1.15524C37.4083 -0.213988 39.2012 -0.424625 40.4668 0.839275C41.7324 1.99785 41.8378 3.57771 40.5722 5.68421C45.74 11.7931 50.8024 18.0072 55.7593 24.0108ZM41.4159 36.0178C46.0564 32.2261 50.486 28.6451 55.021 24.9587C49.9586 18.7445 44.8963 12.6357 39.8339 6.42149C35.2989 10.2132 30.764 13.7942 26.229 17.4806C31.2913 23.5895 36.3536 29.8036 41.4159 36.0178ZM32.0295 26.2226C31.6077 26.5386 31.3967 26.6439 31.1858 26.8545C24.436 32.0155 17.6863 37.0711 10.9365 42.232C8.0889 44.4438 5.2413 46.5503 2.39373 48.7621C0.917219 49.9207 0.706276 51.3953 1.65546 52.6592C2.81558 54.1337 4.3976 54.239 5.97958 52.8698C15.1551 44.9704 24.2251 36.9657 33.2951 29.0664C33.506 28.961 33.6115 28.7504 33.8224 28.5397C33.2951 27.8025 32.6623 27.0652 32.0295 26.2226ZM23.3814 17.7966C24.1196 17.3753 24.6469 17.27 25.0688 16.8487C29.9202 12.8463 34.7716 8.94929 39.623 4.94694C40.1503 4.52564 40.4668 3.57772 40.4668 2.84044C40.2558 1.04992 38.3575 0.523293 36.7755 1.78719C33.9279 4.10434 31.1858 6.31617 28.3383 8.63332C26.3344 10.3185 24.3306 11.8984 22.3267 13.5836C21.5885 14.2155 21.0611 15.0581 21.5884 16.0061C22.0103 16.8487 22.854 17.27 23.3814 17.7966ZM60.1888 26.7492C59.6614 26.1173 59.2396 25.1693 58.6068 24.9587C57.974 24.748 56.8139 24.8534 56.2866 25.2747C51.3297 29.1717 46.4783 33.174 41.6269 37.1764C40.5722 38.019 40.4667 39.2829 41.205 40.2308C41.9432 41.1787 43.3143 41.3894 44.3689 40.5468C49.3258 36.5444 54.1773 32.5421 59.0287 28.5397C59.4505 28.2238 59.7669 27.4865 60.1888 26.7492Z" fill="#361C20"/>
</svg>
