<svg width="75" height="57" viewBox="0 0 75 57" fill="none" xmlns="http://www.w3.org/2000/svg">
<path d="M0 37.6777C0.582582 36.027 1.84484 35.0561 3.30129 34.2793C8.35034 31.4635 13.3994 28.4535 18.4484 25.5406C19.1281 25.1522 19.6136 24.6667 19.7107 23.8899C19.9049 22.7247 20.1962 21.5596 20.4875 20.3944C20.6817 19.4235 21.0701 19.0351 22.041 19.1322C22.8178 19.2292 23.5946 19.1322 24.4685 19.1322C23.6917 6.60663 33.8869 -0.190145 42.1401 0.00404911C50.005 0.198243 59.7147 6.99502 58.9379 19.1322C60.6856 19.1322 62.4334 19.1322 64.1812 19.1322C65.8318 19.1322 65.8318 19.1322 66.2202 20.7828C68.8418 32.4345 71.4634 44.0861 74.1821 55.7378C74.2792 56.1261 74.2793 56.5145 74.3764 57C53.7918 57 33.4014 57 12.6226 57C14.0791 50.3003 15.5355 43.6006 16.992 36.7067C15.7297 37.4835 14.5646 38.0661 13.4965 38.7458C11.5545 39.8138 9.61261 40.8819 7.76776 42.0471C4.85485 43.989 1.55354 43.5035 0.0970882 39.8138C-8.89095e-06 39.0371 0 38.3574 0 37.6777ZM13.5936 56.029C33.4014 56.029 53.1121 56.029 73.017 56.029C70.2982 43.989 67.5795 32.1432 64.8608 20.2002C62.7247 20.2002 60.5886 20.2002 58.5495 20.2002C58.2582 21.3654 57.9669 22.5306 57.5785 23.6957C58.4524 23.6957 59.3263 23.6957 60.1031 23.6957C62.4334 23.6957 62.3363 23.6957 62.8218 25.9289C63.016 26.7057 62.8218 26.997 61.9479 26.997C60.5886 26.997 59.1321 27.1912 57.7728 26.997C55.8308 26.7057 54.8598 27.7738 53.986 29.3273C54.4715 29.3273 54.8598 29.4244 55.2482 29.4244C57.6756 29.4244 60.1031 29.4244 62.4334 29.4244C63.2102 29.4244 63.6957 29.7157 63.7927 30.4925C63.7927 30.8809 63.8899 31.1722 63.987 31.4635C64.3753 32.4345 63.987 32.7257 63.016 32.7257C58.7437 32.7257 54.4714 32.7257 50.1992 32.7257C49.5195 32.7257 48.8398 32.9199 48.1601 33.1141C44.1792 34.6677 40.1011 34.959 36.1201 33.5025C34.2752 32.8229 32.4304 32.5315 30.4885 32.6286C30.003 32.6286 29.5175 32.7257 28.9349 32.6286C25.2452 32.1432 21.9439 33.1141 18.9339 35.2503C18.2542 35.7358 17.7688 36.2212 17.6717 36.998C16.8949 40.5906 16.1181 44.1832 15.3413 47.7758C14.7587 50.5916 14.2733 53.3103 13.5936 56.029ZM41.5575 1.07209C32.6246 1.07209 25.3423 8.25729 25.3423 17.2873C25.2452 26.2202 32.6246 33.5025 41.4604 33.5996C50.3934 33.5996 57.7728 26.4144 57.7728 17.5786C57.7728 8.35437 50.5876 1.07209 41.5575 1.07209ZM25.051 22.8219C19.7107 25.929 14.2733 29.036 8.73874 32.2403C9.9039 34.2793 11.0691 36.2212 12.1371 38.1632C14.9529 36.5125 17.6717 34.959 20.3904 33.4054C23.1091 31.8519 25.8278 30.2983 28.4494 28.7448C27.2843 26.8028 26.2162 24.8609 25.051 22.8219ZM4.17516 34.959C2.33032 35.7358 0.873874 36.8038 0.970971 38.8429C0.970971 40.2022 1.74774 41.2703 3.01 41.8529C4.75775 42.6296 6.1171 41.8529 7.57356 40.7848C6.40839 38.8429 5.24323 36.9009 4.17516 34.959ZM4.95194 34.4735C6.11711 36.5125 7.28227 38.4545 8.35034 40.3964C9.32131 39.8138 10.1952 39.3284 11.1662 38.7458C10.001 36.7067 8.93293 34.7648 7.76776 32.8228C6.89389 33.3083 5.92291 33.8909 4.95194 34.4735ZM62.8218 30.4925C62.7247 30.4925 62.6276 30.3954 62.5305 30.3954C59.6176 30.3954 56.8018 30.3954 53.8889 30.2983C52.7237 30.2983 51.9469 30.7838 51.0731 31.6577C55.1511 31.6577 59.035 31.6577 63.016 31.6577C63.016 31.1722 62.9189 30.8809 62.8218 30.4925ZM21.3614 20.2002C21.0701 21.4625 20.8759 22.7248 20.4875 24.1812C22.1381 23.2102 23.4975 22.4335 24.7598 21.6567C24.5656 19.9089 24.4685 19.9089 21.3614 20.2002ZM25.7307 31.6577C27.8669 31.6577 29.9059 31.6577 31.9449 31.6577C29.9059 29.8128 28.1581 29.8128 25.7307 31.6577ZM61.7537 26.026C61.8508 25.1522 61.6566 24.6667 60.6857 24.7638C59.8118 24.8609 58.9379 24.8609 58.1611 24.7638C57.1902 24.6667 56.8018 25.1522 56.7047 26.026C58.3553 26.026 60.006 26.026 61.7537 26.026Z" fill="#F8D8B1"/>
<path d="M43.3053 49.7176C35.6346 49.7176 27.9639 49.7176 20.2932 49.7176C19.7107 49.7176 18.6426 50.2031 18.5455 48.9408C18.4484 47.096 19.031 46.3192 20.4874 46.3192C28.061 46.3192 35.6346 46.3192 43.2081 46.3192C50.7817 46.3192 58.2582 46.3192 65.8317 46.3192C67.094 46.3192 68.4534 48.067 68.065 49.2321C67.9679 49.4263 67.5795 49.6205 67.2882 49.6205C66.2201 49.6205 65.1521 49.6205 63.9869 49.6205C57.093 49.7176 50.1991 49.7176 43.3053 49.7176ZM66.8027 48.6495C66.8027 47.4844 66.2201 47.3873 65.3463 47.3873C50.5875 47.3873 35.8288 47.3873 21.07 47.3873C20.6816 47.3873 20.2932 47.3873 19.9049 47.3873C19.8078 47.8728 19.8078 48.2611 19.8078 48.6495C35.4404 48.6495 51.073 48.6495 66.8027 48.6495Z" fill="#F8D8B1"/>
<path d="M19.7109 43.8919C19.9051 42.921 19.9051 42.1442 20.1964 41.3674C20.2935 41.0761 20.8761 40.6877 21.3616 40.6877C22.721 40.5906 24.1774 40.6877 25.5368 40.6877C38.3536 40.6877 51.2675 40.6877 64.0843 40.6877C66.4146 40.6877 66.2204 40.3964 66.7059 42.8239C66.803 43.1152 66.803 43.4065 66.803 43.8919C51.1704 43.8919 35.5378 43.8919 19.7109 43.8919ZM65.6379 43.0181C65.735 41.95 65.2494 41.6587 64.2785 41.6587C50.2965 41.6587 36.2174 41.6587 22.2355 41.6587C21.2645 41.6587 20.779 41.95 20.9732 43.0181C35.8291 43.0181 50.6849 43.0181 65.6379 43.0181Z" fill="#F8D8B1"/>
<path d="M43.2083 38.3574C36.2173 38.3574 29.2263 38.3574 22.2353 38.3574C20.7789 38.3574 20.7789 38.3574 21.0702 36.9009C21.4586 35.1532 21.4586 35.1531 23.3034 35.1531C36.6057 35.1531 49.908 35.1531 63.3074 35.1531C64.6667 35.1531 65.929 36.6096 65.4435 37.9689C65.3464 38.1631 64.7638 38.3574 64.3755 38.3574C60.4916 38.3574 56.6077 38.3574 52.7238 38.3574C49.6167 38.3574 46.4125 38.3574 43.2083 38.3574ZM64.2784 37.3864C64.5696 36.2212 63.9871 36.027 63.0161 36.027C49.8109 36.027 36.6057 36.027 23.4005 36.027C23.0121 36.027 22.7208 36.027 22.3324 36.1241C22.2353 36.6096 22.1382 36.998 22.1382 37.3864C36.2173 37.3864 50.1993 37.3864 64.2784 37.3864Z" fill="#F8D8B1"/>
<path d="M29.0315 17.1901C29.1286 10.102 34.6632 4.66462 41.8484 4.76172C48.6451 4.85881 54.2768 10.5875 54.0826 17.3843C53.9855 24.5695 48.3538 29.9098 41.0716 29.8127C34.469 29.7156 28.9344 23.8898 29.0315 17.1901ZM53.0145 16.8988C53.1116 10.6846 47.3829 5.4414 41.0716 5.73269C34.3719 6.02398 29.9054 11.8498 30.0996 16.8988C37.6732 16.8988 45.3438 16.8988 53.0145 16.8988ZM29.7112 17.9669C30.3909 19.8118 30.9735 21.3653 31.5561 22.9188C31.6532 23.2101 32.2357 23.4043 32.6241 23.4043C38.6442 23.4043 44.5671 23.4043 50.5871 23.4043C50.8784 23.4043 51.3639 23.3072 51.461 23.1131C52.4319 21.5595 53.0145 19.9089 53.1116 17.9669C45.3438 17.9669 37.7703 17.9669 29.7112 17.9669ZM32.6241 24.5695C33.7893 25.8318 34.6632 26.8998 36.508 26.8027C40.1006 26.7056 43.5961 26.8027 47.1887 26.8027C48.451 26.8027 49.8103 25.8318 50.2958 24.5695C44.3729 24.5695 38.6442 24.5695 32.6241 24.5695ZM37.5761 27.8708C40.1977 29.036 42.9164 29.1331 45.538 27.8708C42.9164 27.8708 40.1977 27.8708 37.5761 27.8708Z" fill="#F8D8B1"/>
</svg>
