<svg width="26" height="26" viewBox="0 0 26 26" fill="none" xmlns="http://www.w3.org/2000/svg">
<path fill-rule="evenodd" clip-rule="evenodd" d="M23.6364 0H2.36364C1.06009 0 0 1.06009 0 2.36364V23.6364C0 24.9399 1.06009 26 2.36364 26H11.2273C11.5535 26 11.8182 25.7353 11.8182 25.4091V17.1364C11.8182 16.8102 11.5535 16.5455 11.2273 16.5455H10.0703C9.74409 16.5455 9.47936 16.2807 9.47936 15.9545V12.4091C9.47936 12.0829 9.74409 11.8182 10.0703 11.8182H11.2273C11.5535 11.8182 11.8182 11.5535 11.8182 11.2273V10.0455C11.8182 7.11336 14.2043 4.72727 17.1364 4.72727H20.6818C21.008 4.72727 21.2727 4.992 21.2727 5.31818V8.86364C21.2727 9.18982 21.008 9.45455 20.6818 9.45455H17.1364C16.8102 9.45455 16.5455 9.71927 16.5455 10.0455V11.2273C16.5455 11.5535 16.8102 11.8182 17.1364 11.8182H20.6818C20.8555 11.8182 21.021 11.8938 21.1321 12.0262C21.2455 12.1597 21.294 12.3346 21.2644 12.5072L20.6735 16.0526C20.6262 16.3374 20.3816 16.5455 20.0909 16.5455H17.1364C16.8102 16.5455 16.5455 16.8102 16.5455 17.1364V25.4091C16.5455 25.7353 16.8102 26 17.1364 26H23.6364C24.9399 26 26 24.9399 26 23.6364V2.36364C26 1.06009 24.9399 0 23.6364 0Z" fill="#F8D8B1"/>
</svg>
