<svg width="26" height="28" viewBox="0 0 26 28" fill="none" xmlns="http://www.w3.org/2000/svg">
<path fill-rule="evenodd" clip-rule="evenodd" d="M6.95305 3.02653C4.40237 3.02653 2.3262 5.20486 2.3262 7.88111V20.1384C2.3262 22.8146 4.40237 24.993 6.95305 24.993H18.6352C21.1859 24.993 23.262 22.8146 23.262 20.1384V7.88111C23.262 5.20486 21.1859 3.02653 18.6352 3.02653H6.95305ZM18.6352 27.4337H6.95305C3.11947 27.4337 0 24.1607 0 20.1384V7.88111C0 3.85881 3.11947 0.585815 6.95305 0.585815H18.6352C22.4688 0.585815 25.5882 3.85881 25.5882 7.88111V20.1384C25.5882 24.1607 22.4688 27.4337 18.6352 27.4337Z" fill="#F8D8B1"/>
<path fill-rule="evenodd" clip-rule="evenodd" d="M13.6472 10.4301C10.8248 10.4301 8.52953 12.8384 8.52953 15.7997C8.52953 18.761 10.8248 21.1693 13.6472 21.1693C16.4696 21.1693 18.7648 18.761 18.7648 15.7997C18.7648 12.8384 16.4696 10.4301 13.6472 10.4301ZM13.6472 23.8541C9.4136 23.8541 5.9707 20.2417 5.9707 15.7997C5.9707 11.3577 9.4136 7.74536 13.6472 7.74536C17.8807 7.74536 21.3236 11.3577 21.3236 15.7997C21.3236 20.2417 17.8807 23.8541 13.6472 23.8541Z" fill="#F8D8B1"/>
<path fill-rule="evenodd" clip-rule="evenodd" d="M19.7735 7.90788C19.1326 7.90788 18.6104 7.35994 18.6104 6.68752C18.6104 6.0151 19.1326 5.46716 19.7735 5.46716C20.4143 5.46716 20.9366 6.0151 20.9366 6.68752C20.9366 7.35994 20.4143 7.90788 19.7735 7.90788Z" fill="#F8D8B1"/>
</svg>
