<svg width="17" height="25" viewBox="0 0 17 25" fill="none" xmlns="http://www.w3.org/2000/svg">
<path d="M8.5 0C3.80071 0 0 3.80071 0 8.5C0 14.875 8.5 24.2857 8.5 24.2857C8.5 24.2857 17 14.875 17 8.5C17 3.80071 13.1993 0 8.5 0ZM2.42857 8.5C2.42857 5.14857 5.14857 2.42857 8.5 2.42857C11.8514 2.42857 14.5714 5.14857 14.5714 8.5C14.5714 11.9971 11.0743 17.2307 8.5 20.4971C5.97429 17.255 2.42857 11.9607 2.42857 8.5Z" fill="#D1A280"/>
<path d="M8.49958 11.5357C10.1762 11.5357 11.5353 10.1766 11.5353 8.50001C11.5353 6.82343 10.1762 5.46429 8.49958 5.46429C6.823 5.46429 5.46387 6.82343 5.46387 8.50001C5.46387 10.1766 6.823 11.5357 8.49958 11.5357Z" fill="#D1A280"/>
</svg>
