<svg width="30" height="26" viewBox="0 0 30 26" fill="none" xmlns="http://www.w3.org/2000/svg">
<path fill-rule="evenodd" clip-rule="evenodd" d="M29.8325 3.15899C29.6412 2.94449 29.3349 2.8899 29.0849 3.0264C28.9062 3.1239 28.5587 3.2513 28.1512 3.3761C28.6399 2.7092 29.0362 1.95131 29.2062 1.27271C29.2737 1.00881 29.1724 0.729293 28.9574 0.573292C28.7387 0.418593 28.4524 0.42121 28.2399 0.57851C27.8724 0.850209 26.1737 1.63281 25.0774 1.88631C23.6862 0.585005 22.3012 0 20.6262 0C19.37 0 18.2062 0.373101 16.8537 1.2077C14.495 2.6637 14.0862 5.811 14.2612 7.7415C7.85866 7.1071 4.26741 3.2331 2.99116 1.547C2.86366 1.3793 2.66119 1.29871 2.45619 1.30131C2.24994 1.31691 2.06365 1.4365 1.9599 1.6224C0.433647 4.3433 1.0587 7.1435 2.2312 9.0272C2.0387 8.8907 1.8437 8.7386 1.6487 8.5709C1.46119 8.411 1.20239 8.3746 0.98364 8.4838C0.76489 8.5904 0.624906 8.8192 0.624906 9.0714C0.624906 11.9275 2.23369 13.9685 3.80369 15.1281C3.64994 15.0852 3.48489 15.0358 3.31114 14.9786C3.07614 14.9045 2.82117 14.976 2.65867 15.1671C2.49492 15.3582 2.45369 15.6312 2.55369 15.8639C3.55744 18.2104 5.5537 19.9602 7.7912 20.5686C5.86745 21.7867 3.20739 22.412 0.697385 22.1039C0.404885 22.0636 0.123686 22.2534 0.0311862 22.5472C-0.0613139 22.8397 0.0574234 23.1608 0.314924 23.3142C3.35743 25.1212 6.5187 26 9.9787 26H10.0012C14.7275 25.9961 19.1662 23.8576 22.4987 19.9784C25.7149 16.2357 27.4012 11.4426 27.0562 7.07851C27.8824 6.43631 29.1337 5.2351 29.9049 3.9455C30.0549 3.6959 30.025 3.37349 29.8325 3.15899Z" fill="#F8D8B1"/>
</svg>
